<svg width="728" height="136" viewBox="0 0 728 136" fill="none" xmlns="http://www.w3.org/2000/svg">
<g opacity="0.8">
<path d="M30.9461 53.3537C33.6114 49.4052 37.2637 46.1971 41.9031 43.7293C46.6413 41.2615 52.0211 40.0276 58.0425 40.0276C65.0511 40.0276 71.3686 41.755 76.9952 45.21C82.7205 48.6649 87.2119 53.6005 90.4694 60.0167C93.8256 66.3343 95.5037 73.6883 95.5037 82.0788C95.5037 90.4694 93.8256 97.9221 90.4694 104.437C87.2119 110.853 82.7205 115.838 76.9952 119.392C71.3686 122.946 65.0511 124.723 58.0425 124.723C51.9224 124.723 46.5426 123.538 41.9031 121.169C37.3624 118.701 33.7101 115.542 30.9461 111.692V123.39H10.2167V13.8196H30.9461V53.3537ZM74.33 82.0788C74.33 77.1433 73.2935 72.8986 71.2206 69.345C69.2463 65.6927 66.5811 62.9287 63.2249 61.0532C59.9674 59.1777 56.4138 58.2399 52.564 58.2399C48.813 58.2399 45.2594 59.227 41.9031 61.2013C38.6457 63.0768 35.9804 65.8407 33.9075 69.4931C31.9332 73.1454 30.9461 77.4394 30.9461 82.375C30.9461 87.3106 31.9332 91.6045 33.9075 95.2569C35.9804 98.9092 38.6457 101.723 41.9031 103.697C45.2594 105.572 48.813 106.51 52.564 106.51C56.4138 106.51 59.9674 105.523 63.2249 103.549C66.5811 101.574 69.2463 98.7612 71.2206 95.1088C73.2935 91.4565 74.33 87.1132 74.33 82.0788Z" fill="black"/>
<path d="M156.024 40.1755C165.796 40.1755 173.693 43.2849 179.715 49.5038C185.736 55.6239 188.747 64.2118 188.747 75.2676V123.39H168.017V78.0809C168.017 71.5659 166.389 66.5809 163.131 63.126C159.874 59.5724 155.432 57.7956 149.805 57.7956C144.08 57.7956 139.539 59.5724 136.183 63.126C132.925 66.5809 131.297 71.5659 131.297 78.0809V123.39H110.567V41.36H131.297V51.5767C134.061 48.0231 137.565 45.2592 141.809 43.2849C146.153 41.212 150.891 40.1755 156.024 40.1755Z" fill="black"/>
<path d="M239.85 124.722C233.138 124.722 227.117 123.538 221.786 121.168C216.456 118.701 212.211 115.394 209.052 111.248C205.992 107.102 204.314 102.512 204.018 97.4775H224.895C225.29 100.636 226.82 103.252 229.486 105.325C232.25 107.398 235.655 108.434 239.702 108.434C243.651 108.434 246.711 107.645 248.882 106.065C251.153 104.486 252.288 102.462 252.288 99.9946C252.288 97.3294 250.906 95.3552 248.142 94.0719C245.477 92.6899 241.183 91.2093 235.26 89.6299C229.14 88.1492 224.106 86.6192 220.157 85.0398C216.308 83.4604 212.951 81.0419 210.089 77.7844C207.325 74.527 205.943 70.1343 205.943 64.6064C205.943 60.0657 207.226 55.9198 209.793 52.1687C212.458 48.4177 216.209 45.4563 221.046 43.2847C225.981 41.113 231.756 40.0272 238.37 40.0272C248.142 40.0272 255.94 42.495 261.764 47.4306C267.588 52.2674 270.797 58.8318 271.389 67.1236H251.548C251.252 63.8661 249.87 61.2996 247.402 59.424C245.033 57.4498 241.825 56.4627 237.777 56.4627C234.026 56.4627 231.114 57.1537 229.041 58.5356C227.067 59.9176 226.08 61.8425 226.08 64.3103C226.08 67.0742 227.462 69.1965 230.226 70.6772C232.99 72.0592 237.284 73.4905 243.108 74.9712C249.031 76.4518 253.917 77.9819 257.767 79.5613C261.616 81.1407 264.923 83.6084 267.687 86.9647C270.55 90.2221 272.03 94.5655 272.129 99.9946C272.129 104.733 270.797 108.977 268.131 112.728C265.565 116.479 261.814 119.441 256.878 121.613C252.041 123.686 246.365 124.722 239.85 124.722Z" fill="black"/>
<path d="M283.815 82.0788C283.815 73.787 285.443 66.433 288.701 60.0167C292.057 53.6005 296.598 48.6649 302.323 45.21C308.048 41.755 314.415 40.0276 321.424 40.0276C326.754 40.0276 331.838 41.2121 336.675 43.5812C341.512 45.8516 345.362 48.9117 348.224 52.7614V13.8196H369.25V123.39H348.224V111.248C345.658 115.295 342.055 118.553 337.415 121.021C332.776 123.489 327.396 124.723 321.276 124.723C314.366 124.723 308.048 122.946 302.323 119.392C296.598 115.838 292.057 110.853 288.701 104.437C285.443 97.9221 283.815 90.4694 283.815 82.0788ZM348.372 82.375C348.372 77.3407 347.385 73.0467 345.411 69.4931C343.437 65.8407 340.771 63.0768 337.415 61.2013C334.059 59.227 330.456 58.2399 326.606 58.2399C322.757 58.2399 319.203 59.1777 315.945 61.0532C312.688 62.9287 310.023 65.6927 307.95 69.345C305.976 72.8986 304.988 77.1433 304.988 82.0788C304.988 87.0144 305.976 91.3578 307.95 95.1088C310.023 98.7612 312.688 101.574 315.945 103.549C319.302 105.523 322.855 106.51 326.606 106.51C330.456 106.51 334.059 105.572 337.415 103.697C340.771 101.723 343.437 98.9586 345.411 95.4049C347.385 91.7526 348.372 87.4093 348.372 82.375Z" fill="black"/>
</g>
</svg>
