<svg width="934" height="155" viewBox="0 0 934 155" fill="none" xmlns="http://www.w3.org/2000/svg">
<path d="M28.0719 61.1124C31.5747 55.9231 36.3749 51.7069 42.4723 48.4636C48.6995 45.2202 55.77 43.5985 63.6837 43.5985C72.8947 43.5985 81.1976 45.8688 88.5924 50.4095C96.1169 54.9501 102.02 61.4368 106.301 69.8694C110.712 78.1723 112.917 87.8374 112.917 98.8648C112.917 109.892 110.712 119.687 106.301 128.249C102.02 136.682 96.1169 143.233 88.5924 147.904C81.1976 152.574 72.8947 154.909 63.6837 154.909C55.6402 154.909 48.5698 153.353 42.4723 150.239C36.5046 146.996 31.7045 142.844 28.0719 137.785V153.158H0.828003V9.15442H28.0719V61.1124ZM85.0896 98.8648C85.0896 92.3781 83.7274 86.7996 81.003 82.1292C78.4084 77.3291 74.9056 73.6965 70.4946 71.2316C66.2135 68.7667 61.5431 67.5343 56.4835 67.5343C51.5536 67.5343 46.8832 68.8317 42.4723 71.4263C38.1911 73.8912 34.6883 77.5237 31.9639 82.3238C29.3693 87.1239 28.0719 92.7673 28.0719 99.254C28.0719 105.741 29.3693 111.384 31.9639 116.184C34.6883 120.984 38.1911 124.682 42.4723 127.276C46.8832 129.741 51.5536 130.974 56.4835 130.974C61.5431 130.974 66.2135 129.676 70.4946 127.082C74.9056 124.487 78.4084 120.79 81.003 115.99C83.7274 111.189 85.0896 105.481 85.0896 98.8648Z" fill="black"/>
<path d="M192.457 43.7931C205.3 43.7931 215.679 47.8797 223.593 56.0529C231.507 64.0963 235.463 75.3831 235.463 89.9132V153.158H208.219V93.6106C208.219 85.0482 206.079 78.4967 201.798 73.956C197.516 69.2856 191.678 66.9504 184.284 66.9504C176.759 66.9504 170.791 69.2856 166.381 73.956C162.099 78.4967 159.959 85.0482 159.959 93.6106V153.158H132.715V45.3499H159.959V58.7772C163.591 54.1069 168.197 50.4743 173.775 47.8797C179.484 45.1553 185.711 43.7931 192.457 43.7931Z" fill="black"/>
<path d="M302.626 154.909C293.804 154.909 285.891 153.353 278.885 150.239C271.879 146.996 266.301 142.65 262.149 137.201C258.128 131.752 255.922 125.719 255.533 119.103H282.972C283.49 123.255 285.501 126.692 289.004 129.417C292.637 132.141 297.112 133.503 302.431 133.503C307.621 133.503 311.643 132.466 314.497 130.39C317.481 128.314 318.972 125.655 318.972 122.411C318.972 118.909 317.156 116.314 313.524 114.627C310.021 112.811 304.378 110.865 296.594 108.789C288.55 106.843 281.934 104.832 276.744 102.757C271.685 100.681 267.274 97.5026 263.512 93.2214C259.879 88.9402 258.063 83.1671 258.063 75.902C258.063 69.9343 259.749 64.4855 263.122 59.5556C266.625 54.6258 271.555 50.7338 277.912 47.8797C284.399 45.0255 291.988 43.5985 300.68 43.5985C313.524 43.5985 323.773 46.8418 331.427 53.3285C339.081 59.6854 343.297 68.3126 344.076 79.2102H317.999C317.61 74.929 315.794 71.556 312.551 69.091C309.437 66.4964 305.221 65.199 299.902 65.199C294.972 65.199 291.145 66.1072 288.42 67.9234C285.826 69.7397 284.528 72.2695 284.528 75.5128C284.528 79.1453 286.345 81.9346 289.977 83.8806C293.61 85.6969 299.253 87.578 306.907 89.524C314.691 91.47 321.113 93.4808 326.173 95.5566C331.232 97.6323 335.578 100.876 339.211 105.287C342.973 109.568 344.919 115.276 345.049 122.411C345.049 128.638 343.297 134.217 339.795 139.147C336.422 144.077 331.492 147.969 325.005 150.823C318.648 153.547 311.188 154.909 302.626 154.909Z" fill="black"/>
<path d="M360.407 98.8648C360.407 87.9672 362.548 78.3021 366.829 69.8694C371.24 61.4368 377.207 54.9501 384.732 50.4095C392.256 45.8688 400.624 43.5985 409.835 43.5985C416.841 43.5985 423.522 45.1554 429.879 48.269C436.236 51.2528 441.296 55.2745 445.058 60.334V9.15442H472.691V153.158H445.058V137.201C441.685 142.52 436.949 146.801 430.852 150.044C424.755 153.288 417.684 154.909 409.641 154.909C400.559 154.909 392.256 152.574 384.732 147.904C377.207 143.233 371.24 136.682 366.829 128.249C362.548 119.687 360.407 109.892 360.407 98.8648ZM445.252 99.254C445.252 92.6376 443.955 86.9942 441.36 82.3238C438.766 77.5237 435.263 73.8912 430.852 71.4263C426.441 68.8317 421.706 67.5343 416.646 67.5343C411.587 67.5343 406.916 68.7667 402.635 71.2316C398.354 73.6965 394.851 77.3291 392.127 82.1292C389.532 86.7996 388.235 92.3781 388.235 98.8648C388.235 105.351 389.532 111.06 392.127 115.99C394.851 120.79 398.354 124.487 402.635 127.082C407.046 129.676 411.716 130.974 416.646 130.974C421.706 130.974 426.441 129.741 430.852 127.276C435.263 124.682 438.766 121.049 441.36 116.379C443.955 111.579 445.252 105.87 445.252 99.254Z" fill="black"/>
</svg>
