<svg width="934" height="155" viewBox="0 0 934 155" fill="none" xmlns="http://www.w3.org/2000/svg">
<path d="M540.554 154.909C531.733 154.909 523.819 153.353 516.813 150.239C509.808 146.996 504.229 142.65 500.078 137.201C496.056 131.752 493.851 125.719 493.461 119.103H520.9C521.419 123.255 523.43 126.692 526.932 129.417C530.565 132.141 535.041 133.503 540.36 133.503C545.549 133.503 549.571 132.466 552.425 130.39C555.409 128.314 556.901 125.655 556.901 122.411C556.901 118.909 555.085 116.314 551.452 114.627C547.949 112.811 542.306 110.865 534.522 108.789C526.478 106.843 519.862 104.832 514.673 102.757C509.613 100.681 505.202 97.5026 501.44 93.2214C497.807 88.9402 495.991 83.1671 495.991 75.902C495.991 69.9343 497.678 64.4855 501.051 59.5556C504.554 54.6258 509.483 50.7338 515.84 47.8797C522.327 45.0255 529.916 43.5985 538.608 43.5985C551.452 43.5985 561.701 46.8418 569.355 53.3285C577.009 59.6854 581.226 68.3126 582.004 79.2102H555.928C555.539 74.929 553.722 71.556 550.479 69.091C547.365 66.4964 543.149 65.199 537.83 65.199C532.9 65.199 529.073 66.1072 526.349 67.9234C523.754 69.7397 522.457 72.2695 522.457 75.5128C522.457 79.1453 524.273 81.9346 527.906 83.8806C531.538 85.6969 537.181 87.578 544.836 89.524C552.62 91.47 559.041 93.4808 564.101 95.5566C569.161 97.6323 573.507 100.876 577.139 105.287C580.901 109.568 582.847 115.276 582.977 122.411C582.977 128.638 581.226 134.217 577.723 139.147C574.35 144.077 569.42 147.969 562.933 150.823C556.576 153.547 549.117 154.909 540.554 154.909Z" fill="black"/>
<path d="M665.083 43.7931C677.927 43.7931 688.305 47.8797 696.219 56.0529C704.133 64.0963 708.089 75.3831 708.089 89.9132V153.158H680.846V93.6106C680.846 85.0482 678.705 78.4967 674.424 73.956C670.143 69.2856 664.305 66.9504 656.91 66.9504C649.385 66.9504 643.418 69.2856 639.007 73.956C634.725 78.4967 632.585 85.0482 632.585 93.6106V153.158H605.341V45.3499H632.585V58.7772C636.217 54.1069 640.823 50.4743 646.401 47.8797C652.11 45.1553 658.337 43.7931 665.083 43.7931Z" fill="black"/>
<path d="M747.814 32.5064C743.014 32.5064 738.992 31.0145 735.749 28.0306C732.635 24.917 731.078 21.0899 731.078 16.5492C731.078 12.0086 732.635 8.24629 735.749 5.26243C738.992 2.14884 743.014 0.592041 747.814 0.592041C752.614 0.592041 756.571 2.14884 759.684 5.26243C762.928 8.24629 764.549 12.0086 764.549 16.5492C764.549 21.0899 762.928 24.917 759.684 28.0306C756.571 31.0145 752.614 32.5064 747.814 32.5064ZM761.241 45.35V153.158H733.997V45.35H761.241Z" fill="black"/>
<path d="M781.153 99.254C781.153 88.0969 783.423 78.3669 787.963 70.064C792.504 61.6314 798.796 55.1447 806.84 50.6041C814.883 45.9337 824.094 43.5985 834.473 43.5985C847.835 43.5985 858.863 46.9715 867.555 53.7177C876.377 60.334 882.279 69.6748 885.263 81.74H855.879C854.322 77.0696 851.662 73.4371 847.9 70.8424C844.268 68.118 839.727 66.7558 834.278 66.7558C826.494 66.7558 820.332 69.61 815.791 75.3182C811.251 80.8967 808.98 88.8753 808.98 99.254C808.98 109.503 811.251 117.481 815.791 123.19C820.332 128.768 826.494 131.557 834.278 131.557C845.306 131.557 852.506 126.628 855.879 116.768H885.263C882.279 128.444 876.377 137.72 867.555 144.596C858.733 151.471 847.706 154.909 834.473 154.909C824.094 154.909 814.883 152.639 806.84 148.098C798.796 143.428 792.504 136.941 787.963 128.638C783.423 120.206 781.153 110.411 781.153 99.254Z" fill="black"/>
<path d="M917.287 154.52C912.357 154.52 908.271 153.028 905.027 150.044C901.914 146.931 900.357 143.104 900.357 138.563C900.357 134.022 901.914 130.26 905.027 127.276C908.271 124.163 912.357 122.606 917.287 122.606C922.087 122.606 926.044 124.163 929.158 127.276C932.271 130.26 933.828 134.022 933.828 138.563C933.828 143.104 932.271 146.931 929.158 150.044C926.044 153.028 922.087 154.52 917.287 154.52Z" fill="black"/>
</svg>
