<svg width="728" height="136" viewBox="0 0 728 136" fill="none" xmlns="http://www.w3.org/2000/svg">
<g opacity="0.8">
<path d="M420.886 124.722C414.174 124.722 408.153 123.538 402.822 121.168C397.492 118.7 393.247 115.394 390.088 111.248C387.028 107.102 385.35 102.512 385.054 97.4774H405.932C406.326 100.636 407.856 103.252 410.522 105.325C413.286 107.398 416.691 108.434 420.738 108.434C424.687 108.434 427.747 107.645 429.918 106.065C432.189 104.486 433.324 102.462 433.324 99.9946C433.324 97.3293 431.942 95.3551 429.178 94.0718C426.513 92.6899 422.219 91.2092 416.296 89.6298C410.176 88.1491 405.142 86.6191 401.193 85.0397C397.344 83.4603 393.987 81.0419 391.125 77.7844C388.361 74.5269 386.979 70.1342 386.979 64.6064C386.979 60.0656 388.262 55.9197 390.829 52.1687C393.494 48.4176 397.245 45.4563 402.082 43.2846C407.017 41.1129 412.792 40.0271 419.406 40.0271C429.178 40.0271 436.976 42.4949 442.8 47.4305C448.624 52.2674 451.833 58.8317 452.425 67.1235H432.584C432.288 63.866 430.906 61.2995 428.438 59.424C426.069 57.4497 422.861 56.4626 418.813 56.4626C415.062 56.4626 412.15 57.1536 410.077 58.5356C408.103 59.9175 407.116 61.8424 407.116 64.3102C407.116 67.0742 408.498 69.1965 411.262 70.6771C414.026 72.0591 418.32 73.4904 424.144 74.9711C430.067 76.4518 434.953 77.9818 438.803 79.5612C442.652 81.1406 445.959 83.6084 448.723 86.9646C451.586 90.2221 453.066 94.5654 453.165 99.9946C453.165 104.733 451.833 108.977 449.167 112.728C446.601 116.479 442.85 119.441 437.914 121.612C433.077 123.686 427.401 124.722 420.886 124.722Z" fill="black"/>
<path d="M515.638 40.1755C525.41 40.1755 533.307 43.285 539.329 49.5038C545.35 55.6239 548.361 64.2119 548.361 75.2676V123.39H527.631V78.0809C527.631 71.5659 526.003 66.581 522.745 63.126C519.488 59.5724 515.046 57.7956 509.419 57.7956C503.694 57.7956 499.153 59.5724 495.797 63.126C492.539 66.581 490.911 71.5659 490.911 78.0809V123.39H470.181V41.3601H490.911V51.5768C493.675 48.0231 497.179 45.2592 501.423 43.285C505.767 41.212 510.505 40.1755 515.638 40.1755Z" fill="black"/>
<path d="M578.586 31.5876C574.934 31.5876 571.873 30.4524 569.406 28.182C567.037 25.8129 565.852 22.9009 565.852 19.446C565.852 15.9911 567.037 13.1284 569.406 10.8581C571.873 8.48899 574.934 7.30444 578.586 7.30444C582.238 7.30444 585.249 8.48899 587.618 10.8581C590.086 13.1284 591.32 15.9911 591.32 19.446C591.32 22.9009 590.086 25.8129 587.618 28.182C585.249 30.4524 582.238 31.5876 578.586 31.5876ZM588.803 41.36V123.39H568.073V41.36H588.803Z" fill="black"/>
<path d="M603.953 82.3745C603.953 73.8853 605.681 66.4819 609.136 60.1643C612.591 53.748 617.378 48.8125 623.498 45.3575C629.619 41.8039 636.627 40.0271 644.524 40.0271C654.691 40.0271 663.082 42.5936 669.696 47.7266C676.408 52.7609 680.899 59.8682 683.17 69.0484H660.811C659.627 65.4948 657.603 62.7308 654.741 60.7566C651.977 58.6836 648.522 57.6472 644.376 57.6472C638.453 57.6472 633.764 59.8188 630.31 64.1621C626.855 68.4068 625.127 74.4775 625.127 82.3745C625.127 90.1727 626.855 96.2435 630.31 100.587C633.764 104.831 638.453 106.954 644.376 106.954C652.767 106.954 658.245 103.203 660.811 95.7006H683.17C680.899 104.585 676.408 111.643 669.696 116.874C662.983 122.106 654.593 124.722 644.524 124.722C636.627 124.722 629.619 122.994 623.498 119.54C617.378 115.986 612.591 111.05 609.136 104.733C605.681 98.3165 603.953 90.8637 603.953 82.3745Z" fill="black"/>
<path d="M707.536 124.426C703.785 124.426 700.675 123.291 698.207 121.02C695.838 118.651 694.654 115.739 694.654 112.284C694.654 108.829 695.838 105.967 698.207 103.696C700.675 101.327 703.785 100.143 707.536 100.143C711.188 100.143 714.199 101.327 716.568 103.696C718.937 105.967 720.121 108.829 720.121 112.284C720.121 115.739 718.937 118.651 716.568 121.02C714.199 123.291 711.188 124.426 707.536 124.426Z" fill="black"/>
</g>
</svg>
